<svg width="129" height="128" viewBox="0 0 129 128" fill="none" xmlns="http://www.w3.org/2000/svg">
<g id="Buildings" clip-path="url(#clip0_104_2277)">
<path id="Vector" d="M68.5 108V16C68.4996 15.2761 68.3027 14.5659 67.9304 13.9451C67.558 13.3243 67.0242 12.8161 66.3857 12.4748C65.7473 12.1336 65.0282 11.9719 64.3052 12.0072C63.5821 12.0424 62.8822 12.2733 62.28 12.675L22.28 39.34C21.7314 39.7061 21.2817 40.2021 20.9712 40.784C20.6606 41.3659 20.4988 42.0155 20.5 42.675V108" stroke="black" stroke-width="5" stroke-linecap="round" stroke-linejoin="round"/>
<path id="Vector_2" d="M68.5 44H104.5C105.561 44 106.578 44.4214 107.328 45.1716C108.079 45.9217 108.5 46.9391 108.5 48V108" stroke="black" stroke-width="5" stroke-linecap="round" stroke-linejoin="round"/>
<path id="Vector_3" d="M8.5 108H120.5" stroke="black" stroke-width="5" stroke-linecap="round" stroke-linejoin="round"/>
<path id="Vector_4" d="M52.5 56V64" stroke="black" stroke-width="5" stroke-linecap="round" stroke-linejoin="round"/>
<path id="Vector_5" d="M36.5 56V64" stroke="black" stroke-width="5" stroke-linecap="round" stroke-linejoin="round"/>
<path id="Vector_6" d="M36.5 84V92" stroke="black" stroke-width="5" stroke-linecap="round" stroke-linejoin="round"/>
<path id="Vector_7" d="M52.5 84V92" stroke="black" stroke-width="5" stroke-linecap="round" stroke-linejoin="round"/>
</g>
<defs>
<clipPath id="clip0_104_2277">
<rect width="128" height="128" fill="white" transform="translate(0.5)"/>
</clipPath>
</defs>
</svg>
